<mxfile host="app.diagrams.net" agent="Mozilla/5.0 (Windows NT 10.0; Win64; x64) AppleWebKit/537.36 (KHTML, like Gecko) Chrome/139.0.0.0 Safari/537.36" version="28.1.1">
  <diagram name="Página-1" id="1KDpcNp4lPgzmjWpOyFx">
    <mxGraphModel dx="1507" dy="661" grid="1" gridSize="10" guides="1" tooltips="1" connect="1" arrows="1" fold="1" page="1" pageScale="1" pageWidth="2000" pageHeight="2000" math="0" shadow="0">
      <root>
        <mxCell id="0" />
        <mxCell id="1" parent="0" />
        <mxCell id="mqKw5znJvU7-oB4T0T8k-3" value="Equipe" style="whiteSpace=wrap;html=1;align=center;" vertex="1" parent="1">
          <mxGeometry x="540" y="700" width="100" height="37" as="geometry" />
        </mxCell>
        <mxCell id="mqKw5znJvU7-oB4T0T8k-4" value="&lt;u&gt;Código&lt;/u&gt;" style="ellipse;whiteSpace=wrap;html=1;align=center;" vertex="1" parent="1">
          <mxGeometry x="385" y="748.5" width="100" height="40" as="geometry" />
        </mxCell>
        <mxCell id="mqKw5znJvU7-oB4T0T8k-5" value="Nome" style="ellipse;whiteSpace=wrap;html=1;align=center;" vertex="1" parent="1">
          <mxGeometry x="485" y="807" width="100" height="40" as="geometry" />
        </mxCell>
        <mxCell id="mqKw5znJvU7-oB4T0T8k-6" value="Ano de formação" style="ellipse;whiteSpace=wrap;html=1;align=center;" vertex="1" parent="1">
          <mxGeometry x="605" y="807" width="100" height="40" as="geometry" />
        </mxCell>
        <mxCell id="mqKw5znJvU7-oB4T0T8k-9" value="" style="endArrow=none;html=1;rounded=0;exitX=0.5;exitY=0;exitDx=0;exitDy=0;entryX=0.75;entryY=1;entryDx=0;entryDy=0;" edge="1" parent="1" source="mqKw5znJvU7-oB4T0T8k-6" target="mqKw5znJvU7-oB4T0T8k-3">
          <mxGeometry relative="1" as="geometry">
            <mxPoint x="695" y="817" as="sourcePoint" />
            <mxPoint x="855" y="817" as="targetPoint" />
          </mxGeometry>
        </mxCell>
        <mxCell id="mqKw5znJvU7-oB4T0T8k-10" value="" style="endArrow=none;html=1;rounded=0;exitX=0.5;exitY=0;exitDx=0;exitDy=0;entryX=0.25;entryY=1;entryDx=0;entryDy=0;" edge="1" parent="1" source="mqKw5znJvU7-oB4T0T8k-5" target="mqKw5znJvU7-oB4T0T8k-3">
          <mxGeometry relative="1" as="geometry">
            <mxPoint x="695" y="787" as="sourcePoint" />
            <mxPoint x="855" y="787" as="targetPoint" />
          </mxGeometry>
        </mxCell>
        <mxCell id="mqKw5znJvU7-oB4T0T8k-12" value="" style="endArrow=none;html=1;rounded=0;entryX=0;entryY=1;entryDx=0;entryDy=0;exitX=1;exitY=0.5;exitDx=0;exitDy=0;" edge="1" parent="1" source="mqKw5znJvU7-oB4T0T8k-4" target="mqKw5znJvU7-oB4T0T8k-3">
          <mxGeometry relative="1" as="geometry">
            <mxPoint x="495" y="757" as="sourcePoint" />
            <mxPoint x="765" y="627" as="targetPoint" />
          </mxGeometry>
        </mxCell>
        <mxCell id="mqKw5znJvU7-oB4T0T8k-13" value="Piloto" style="whiteSpace=wrap;html=1;align=center;" vertex="1" parent="1">
          <mxGeometry x="540" y="450" width="100" height="40" as="geometry" />
        </mxCell>
        <mxCell id="mqKw5znJvU7-oB4T0T8k-14" value="&lt;u&gt;Código&lt;/u&gt;" style="ellipse;whiteSpace=wrap;html=1;align=center;" vertex="1" parent="1">
          <mxGeometry x="385" y="500" width="100" height="40" as="geometry" />
        </mxCell>
        <mxCell id="mqKw5znJvU7-oB4T0T8k-15" value="Nome" style="ellipse;whiteSpace=wrap;html=1;align=center;" vertex="1" parent="1">
          <mxGeometry x="385" y="400" width="100" height="40" as="geometry" />
        </mxCell>
        <mxCell id="mqKw5znJvU7-oB4T0T8k-19" value="" style="endArrow=none;html=1;rounded=0;exitX=0;exitY=0.75;exitDx=0;exitDy=0;entryX=1;entryY=0.5;entryDx=0;entryDy=0;" edge="1" parent="1" source="mqKw5znJvU7-oB4T0T8k-13" target="mqKw5znJvU7-oB4T0T8k-14">
          <mxGeometry relative="1" as="geometry">
            <mxPoint x="620" y="630" as="sourcePoint" />
            <mxPoint x="780" y="630" as="targetPoint" />
          </mxGeometry>
        </mxCell>
        <mxCell id="mqKw5znJvU7-oB4T0T8k-22" value="Cirquito" style="whiteSpace=wrap;html=1;align=center;" vertex="1" parent="1">
          <mxGeometry x="950" y="450" width="100" height="40" as="geometry" />
        </mxCell>
        <mxCell id="mqKw5znJvU7-oB4T0T8k-23" value="&lt;u&gt;Código&amp;nbsp;&lt;/u&gt;" style="ellipse;whiteSpace=wrap;html=1;align=center;" vertex="1" parent="1">
          <mxGeometry x="1070" y="390" width="100" height="40" as="geometry" />
        </mxCell>
        <mxCell id="mqKw5znJvU7-oB4T0T8k-24" value="Nome" style="ellipse;whiteSpace=wrap;html=1;align=center;" vertex="1" parent="1">
          <mxGeometry x="1070" y="500" width="100" height="40" as="geometry" />
        </mxCell>
        <mxCell id="mqKw5znJvU7-oB4T0T8k-27" value="" style="endArrow=none;html=1;rounded=0;exitX=0;exitY=0.5;exitDx=0;exitDy=0;entryX=1;entryY=1;entryDx=0;entryDy=0;" edge="1" parent="1" source="mqKw5znJvU7-oB4T0T8k-24" target="mqKw5znJvU7-oB4T0T8k-22">
          <mxGeometry relative="1" as="geometry">
            <mxPoint x="770" y="740" as="sourcePoint" />
            <mxPoint x="930" y="740" as="targetPoint" />
          </mxGeometry>
        </mxCell>
        <mxCell id="mqKw5znJvU7-oB4T0T8k-29" value="" style="endArrow=none;html=1;rounded=0;exitX=1;exitY=0;exitDx=0;exitDy=0;entryX=0;entryY=0.5;entryDx=0;entryDy=0;" edge="1" parent="1" source="mqKw5znJvU7-oB4T0T8k-22" target="mqKw5znJvU7-oB4T0T8k-23">
          <mxGeometry relative="1" as="geometry">
            <mxPoint x="1065" y="526" as="sourcePoint" />
            <mxPoint x="1085" y="424" as="targetPoint" />
          </mxGeometry>
        </mxCell>
        <mxCell id="mqKw5znJvU7-oB4T0T8k-34" value="" style="endArrow=none;html=1;rounded=0;exitX=0.5;exitY=1;exitDx=0;exitDy=0;entryX=0.5;entryY=0;entryDx=0;entryDy=0;" edge="1" parent="1" source="mqKw5znJvU7-oB4T0T8k-65" target="mqKw5znJvU7-oB4T0T8k-22">
          <mxGeometry relative="1" as="geometry">
            <mxPoint x="860" y="470" as="sourcePoint" />
            <mxPoint x="1010" y="620" as="targetPoint" />
          </mxGeometry>
        </mxCell>
        <mxCell id="mqKw5znJvU7-oB4T0T8k-36" value="1..N" style="edgeLabel;html=1;align=center;verticalAlign=middle;resizable=0;points=[];" vertex="1" connectable="0" parent="mqKw5znJvU7-oB4T0T8k-34">
          <mxGeometry x="0.024" y="2" relative="1" as="geometry">
            <mxPoint x="-19" y="-1" as="offset" />
          </mxGeometry>
        </mxCell>
        <mxCell id="mqKw5znJvU7-oB4T0T8k-37" value="Pertence" style="shape=rhombus;perimeter=rhombusPerimeter;whiteSpace=wrap;html=1;align=center;" vertex="1" parent="1">
          <mxGeometry x="530" y="570" width="120" height="60" as="geometry" />
        </mxCell>
        <mxCell id="mqKw5znJvU7-oB4T0T8k-38" value="" style="endArrow=none;html=1;rounded=0;exitX=0.5;exitY=1;exitDx=0;exitDy=0;entryX=0.5;entryY=0;entryDx=0;entryDy=0;" edge="1" parent="1" source="mqKw5znJvU7-oB4T0T8k-37" target="mqKw5znJvU7-oB4T0T8k-3">
          <mxGeometry relative="1" as="geometry">
            <mxPoint x="635" y="620" as="sourcePoint" />
            <mxPoint x="795" y="620" as="targetPoint" />
          </mxGeometry>
        </mxCell>
        <mxCell id="mqKw5znJvU7-oB4T0T8k-40" value="1..1" style="edgeLabel;html=1;align=center;verticalAlign=middle;resizable=0;points=[];" vertex="1" connectable="0" parent="mqKw5znJvU7-oB4T0T8k-38">
          <mxGeometry x="0.1333" y="-1" relative="1" as="geometry">
            <mxPoint x="16" as="offset" />
          </mxGeometry>
        </mxCell>
        <mxCell id="mqKw5znJvU7-oB4T0T8k-39" value="" style="endArrow=none;html=1;rounded=0;exitX=0.5;exitY=0;exitDx=0;exitDy=0;entryX=0.5;entryY=1;entryDx=0;entryDy=0;" edge="1" parent="1" source="mqKw5znJvU7-oB4T0T8k-37" target="mqKw5znJvU7-oB4T0T8k-13">
          <mxGeometry relative="1" as="geometry">
            <mxPoint x="730" y="600" as="sourcePoint" />
            <mxPoint x="890" y="600" as="targetPoint" />
          </mxGeometry>
        </mxCell>
        <mxCell id="mqKw5znJvU7-oB4T0T8k-41" value="1..N" style="edgeLabel;html=1;align=center;verticalAlign=middle;resizable=0;points=[];" vertex="1" connectable="0" parent="mqKw5znJvU7-oB4T0T8k-39">
          <mxGeometry x="-0.12" y="-2" relative="1" as="geometry">
            <mxPoint as="offset" />
          </mxGeometry>
        </mxCell>
        <mxCell id="mqKw5znJvU7-oB4T0T8k-42" value="País" style="whiteSpace=wrap;html=1;align=center;" vertex="1" parent="1">
          <mxGeometry x="950" y="698.5" width="100" height="40" as="geometry" />
        </mxCell>
        <mxCell id="mqKw5znJvU7-oB4T0T8k-43" value="&lt;u&gt;Sigla&lt;/u&gt;" style="ellipse;whiteSpace=wrap;html=1;align=center;" vertex="1" parent="1">
          <mxGeometry x="1020" y="780" width="100" height="40" as="geometry" />
        </mxCell>
        <mxCell id="mqKw5znJvU7-oB4T0T8k-44" value="Nome" style="ellipse;whiteSpace=wrap;html=1;align=center;" vertex="1" parent="1">
          <mxGeometry x="883" y="780" width="100" height="40" as="geometry" />
        </mxCell>
        <mxCell id="mqKw5znJvU7-oB4T0T8k-46" value="" style="endArrow=none;html=1;rounded=0;exitX=0.5;exitY=0;exitDx=0;exitDy=0;entryX=0.25;entryY=1;entryDx=0;entryDy=0;" edge="1" parent="1" source="mqKw5znJvU7-oB4T0T8k-44" target="mqKw5znJvU7-oB4T0T8k-42">
          <mxGeometry relative="1" as="geometry">
            <mxPoint x="1088" y="860" as="sourcePoint" />
            <mxPoint x="1248" y="860" as="targetPoint" />
          </mxGeometry>
        </mxCell>
        <mxCell id="mqKw5znJvU7-oB4T0T8k-48" value="" style="endArrow=none;html=1;rounded=0;exitX=0.5;exitY=0;exitDx=0;exitDy=0;entryX=0.5;entryY=1;entryDx=0;entryDy=0;" edge="1" parent="1" source="mqKw5znJvU7-oB4T0T8k-13" target="mqKw5znJvU7-oB4T0T8k-64">
          <mxGeometry relative="1" as="geometry">
            <mxPoint x="680" y="550" as="sourcePoint" />
            <mxPoint x="740" y="470" as="targetPoint" />
          </mxGeometry>
        </mxCell>
        <mxCell id="mqKw5znJvU7-oB4T0T8k-75" value="1..N" style="edgeLabel;html=1;align=center;verticalAlign=middle;resizable=0;points=[];" vertex="1" connectable="0" parent="mqKw5znJvU7-oB4T0T8k-48">
          <mxGeometry x="-0.1833" y="-2" relative="1" as="geometry">
            <mxPoint x="-22" y="-7" as="offset" />
          </mxGeometry>
        </mxCell>
        <mxCell id="mqKw5znJvU7-oB4T0T8k-49" value="Pertence&amp;nbsp;" style="shape=rhombus;perimeter=rhombusPerimeter;whiteSpace=wrap;html=1;align=center;" vertex="1" parent="1">
          <mxGeometry x="740" y="688.5" width="120" height="60" as="geometry" />
        </mxCell>
        <mxCell id="mqKw5znJvU7-oB4T0T8k-51" value="" style="endArrow=none;html=1;rounded=0;exitX=1;exitY=0.5;exitDx=0;exitDy=0;entryX=0;entryY=0.5;entryDx=0;entryDy=0;" edge="1" parent="1" source="mqKw5znJvU7-oB4T0T8k-3" target="mqKw5znJvU7-oB4T0T8k-49">
          <mxGeometry relative="1" as="geometry">
            <mxPoint x="760" y="740" as="sourcePoint" />
            <mxPoint x="920" y="740" as="targetPoint" />
          </mxGeometry>
        </mxCell>
        <mxCell id="mqKw5znJvU7-oB4T0T8k-83" value="1..N" style="edgeLabel;html=1;align=center;verticalAlign=middle;resizable=0;points=[];" vertex="1" connectable="0" parent="mqKw5znJvU7-oB4T0T8k-51">
          <mxGeometry x="-0.0667" y="1" relative="1" as="geometry">
            <mxPoint x="3" y="13" as="offset" />
          </mxGeometry>
        </mxCell>
        <mxCell id="mqKw5znJvU7-oB4T0T8k-53" value="" style="endArrow=none;html=1;rounded=0;exitX=1;exitY=0.5;exitDx=0;exitDy=0;entryX=0;entryY=0.5;entryDx=0;entryDy=0;" edge="1" parent="1" source="mqKw5znJvU7-oB4T0T8k-49" target="mqKw5znJvU7-oB4T0T8k-42">
          <mxGeometry relative="1" as="geometry">
            <mxPoint x="868" y="718.5" as="sourcePoint" />
            <mxPoint x="1043" y="800" as="targetPoint" />
          </mxGeometry>
        </mxCell>
        <mxCell id="mqKw5znJvU7-oB4T0T8k-84" value="1..1" style="edgeLabel;html=1;align=center;verticalAlign=middle;resizable=0;points=[];" vertex="1" connectable="0" parent="mqKw5znJvU7-oB4T0T8k-53">
          <mxGeometry x="-0.0741" relative="1" as="geometry">
            <mxPoint x="-2" y="12" as="offset" />
          </mxGeometry>
        </mxCell>
        <mxCell id="mqKw5znJvU7-oB4T0T8k-54" value="" style="endArrow=none;html=1;rounded=0;exitX=0.5;exitY=0;exitDx=0;exitDy=0;entryX=0.75;entryY=1;entryDx=0;entryDy=0;" edge="1" parent="1" source="mqKw5znJvU7-oB4T0T8k-43" target="mqKw5znJvU7-oB4T0T8k-42">
          <mxGeometry relative="1" as="geometry">
            <mxPoint x="1003" y="870" as="sourcePoint" />
            <mxPoint x="1163" y="870" as="targetPoint" />
          </mxGeometry>
        </mxCell>
        <mxCell id="mqKw5znJvU7-oB4T0T8k-55" value="Pertence" style="shape=rhombus;perimeter=rhombusPerimeter;whiteSpace=wrap;html=1;align=center;" vertex="1" parent="1">
          <mxGeometry x="740" y="560" width="120" height="60" as="geometry" />
        </mxCell>
        <mxCell id="mqKw5znJvU7-oB4T0T8k-56" value="" style="endArrow=none;html=1;rounded=0;exitX=1;exitY=1;exitDx=0;exitDy=0;entryX=0;entryY=0;entryDx=0;entryDy=0;" edge="1" parent="1" source="mqKw5znJvU7-oB4T0T8k-13" target="mqKw5znJvU7-oB4T0T8k-55">
          <mxGeometry relative="1" as="geometry">
            <mxPoint x="660" y="520" as="sourcePoint" />
            <mxPoint x="820" y="520" as="targetPoint" />
          </mxGeometry>
        </mxCell>
        <mxCell id="mqKw5znJvU7-oB4T0T8k-81" value=".1..N" style="edgeLabel;html=1;align=center;verticalAlign=middle;resizable=0;points=[];" vertex="1" connectable="0" parent="mqKw5znJvU7-oB4T0T8k-56">
          <mxGeometry x="-0.1" relative="1" as="geometry">
            <mxPoint x="21" y="-8" as="offset" />
          </mxGeometry>
        </mxCell>
        <mxCell id="mqKw5znJvU7-oB4T0T8k-57" value="" style="endArrow=none;html=1;rounded=0;exitX=1;exitY=1;exitDx=0;exitDy=0;entryX=0;entryY=0;entryDx=0;entryDy=0;" edge="1" parent="1" source="mqKw5znJvU7-oB4T0T8k-55" target="mqKw5znJvU7-oB4T0T8k-42">
          <mxGeometry relative="1" as="geometry">
            <mxPoint x="940" y="640" as="sourcePoint" />
            <mxPoint x="1100" y="640" as="targetPoint" />
          </mxGeometry>
        </mxCell>
        <mxCell id="mqKw5znJvU7-oB4T0T8k-82" value="1..1" style="edgeLabel;html=1;align=center;verticalAlign=middle;resizable=0;points=[];" vertex="1" connectable="0" parent="mqKw5znJvU7-oB4T0T8k-57">
          <mxGeometry x="-0.0128" y="1" relative="1" as="geometry">
            <mxPoint x="10" y="-10" as="offset" />
          </mxGeometry>
        </mxCell>
        <mxCell id="mqKw5znJvU7-oB4T0T8k-58" value="Contém" style="shape=rhombus;perimeter=rhombusPerimeter;whiteSpace=wrap;html=1;align=center;" vertex="1" parent="1">
          <mxGeometry x="940" y="560" width="120" height="60" as="geometry" />
        </mxCell>
        <mxCell id="mqKw5znJvU7-oB4T0T8k-59" value="" style="endArrow=none;html=1;rounded=0;exitX=0.5;exitY=1;exitDx=0;exitDy=0;entryX=0.5;entryY=0;entryDx=0;entryDy=0;" edge="1" parent="1" source="mqKw5znJvU7-oB4T0T8k-58" target="mqKw5znJvU7-oB4T0T8k-42">
          <mxGeometry relative="1" as="geometry">
            <mxPoint x="1070" y="690" as="sourcePoint" />
            <mxPoint x="1230" y="690" as="targetPoint" />
          </mxGeometry>
        </mxCell>
        <mxCell id="mqKw5znJvU7-oB4T0T8k-80" value="1..1" style="edgeLabel;html=1;align=center;verticalAlign=middle;resizable=0;points=[];" vertex="1" connectable="0" parent="mqKw5znJvU7-oB4T0T8k-59">
          <mxGeometry x="-0.0616" y="-2" relative="1" as="geometry">
            <mxPoint x="-15" as="offset" />
          </mxGeometry>
        </mxCell>
        <mxCell id="mqKw5znJvU7-oB4T0T8k-60" value="" style="endArrow=none;html=1;rounded=0;exitX=0.5;exitY=0;exitDx=0;exitDy=0;entryX=0.5;entryY=1;entryDx=0;entryDy=0;" edge="1" parent="1" source="mqKw5znJvU7-oB4T0T8k-58" target="mqKw5znJvU7-oB4T0T8k-22">
          <mxGeometry relative="1" as="geometry">
            <mxPoint x="1100" y="690" as="sourcePoint" />
            <mxPoint x="1260" y="690" as="targetPoint" />
          </mxGeometry>
        </mxCell>
        <mxCell id="mqKw5znJvU7-oB4T0T8k-79" value="1..N" style="edgeLabel;html=1;align=center;verticalAlign=middle;resizable=0;points=[];" vertex="1" connectable="0" parent="mqKw5znJvU7-oB4T0T8k-60">
          <mxGeometry x="0.0905" y="-1" relative="1" as="geometry">
            <mxPoint x="-21" as="offset" />
          </mxGeometry>
        </mxCell>
        <mxCell id="mqKw5znJvU7-oB4T0T8k-61" value="" style="endArrow=none;html=1;rounded=0;exitX=1;exitY=0.5;exitDx=0;exitDy=0;entryX=0;entryY=0.25;entryDx=0;entryDy=0;" edge="1" parent="1" source="mqKw5znJvU7-oB4T0T8k-15" target="mqKw5znJvU7-oB4T0T8k-13">
          <mxGeometry relative="1" as="geometry">
            <mxPoint x="370" y="650" as="sourcePoint" />
            <mxPoint x="530" y="650" as="targetPoint" />
          </mxGeometry>
        </mxCell>
        <mxCell id="mqKw5znJvU7-oB4T0T8k-62" style="edgeStyle=orthogonalEdgeStyle;rounded=0;orthogonalLoop=1;jettySize=auto;html=1;exitX=0.5;exitY=1;exitDx=0;exitDy=0;" edge="1" parent="1" source="mqKw5znJvU7-oB4T0T8k-14" target="mqKw5znJvU7-oB4T0T8k-14">
          <mxGeometry relative="1" as="geometry" />
        </mxCell>
        <mxCell id="mqKw5znJvU7-oB4T0T8k-64" value="Participa" style="shape=rhombus;perimeter=rhombusPerimeter;whiteSpace=wrap;html=1;align=center;" vertex="1" parent="1">
          <mxGeometry x="530" y="310" width="120" height="60" as="geometry" />
        </mxCell>
        <mxCell id="mqKw5znJvU7-oB4T0T8k-65" value="Ocorre" style="shape=rhombus;perimeter=rhombusPerimeter;whiteSpace=wrap;html=1;align=center;" vertex="1" parent="1">
          <mxGeometry x="940" y="310" width="120" height="60" as="geometry" />
        </mxCell>
        <mxCell id="mqKw5znJvU7-oB4T0T8k-67" value="" style="endArrow=none;html=1;rounded=0;exitX=1;exitY=0.5;exitDx=0;exitDy=0;entryX=0;entryY=0.5;entryDx=0;entryDy=0;" edge="1" parent="1" source="mqKw5znJvU7-oB4T0T8k-64" target="mqKw5znJvU7-oB4T0T8k-85">
          <mxGeometry relative="1" as="geometry">
            <mxPoint x="680" y="470" as="sourcePoint" />
            <mxPoint x="720" y="340" as="targetPoint" />
          </mxGeometry>
        </mxCell>
        <mxCell id="mqKw5znJvU7-oB4T0T8k-76" value="1..1" style="edgeLabel;html=1;align=center;verticalAlign=middle;resizable=0;points=[];" vertex="1" connectable="0" parent="mqKw5znJvU7-oB4T0T8k-67">
          <mxGeometry x="-0.0741" y="-5" relative="1" as="geometry">
            <mxPoint x="-2" y="-15" as="offset" />
          </mxGeometry>
        </mxCell>
        <mxCell id="mqKw5znJvU7-oB4T0T8k-68" value="" style="endArrow=none;html=1;rounded=0;entryX=0;entryY=0.5;entryDx=0;entryDy=0;exitX=1;exitY=0.5;exitDx=0;exitDy=0;" edge="1" parent="1" source="mqKw5znJvU7-oB4T0T8k-85" target="mqKw5znJvU7-oB4T0T8k-65">
          <mxGeometry relative="1" as="geometry">
            <mxPoint x="850" y="340" as="sourcePoint" />
            <mxPoint x="950" y="240" as="targetPoint" />
          </mxGeometry>
        </mxCell>
        <mxCell id="mqKw5znJvU7-oB4T0T8k-77" value="1..N" style="edgeLabel;html=1;align=center;verticalAlign=middle;resizable=0;points=[];" vertex="1" connectable="0" parent="mqKw5znJvU7-oB4T0T8k-68">
          <mxGeometry x="0.2333" y="1" relative="1" as="geometry">
            <mxPoint x="-2" y="-9" as="offset" />
          </mxGeometry>
        </mxCell>
        <mxCell id="mqKw5znJvU7-oB4T0T8k-69" value="Data" style="ellipse;whiteSpace=wrap;html=1;align=center;" vertex="1" parent="1">
          <mxGeometry x="640" y="250" width="100" height="40" as="geometry" />
        </mxCell>
        <mxCell id="mqKw5znJvU7-oB4T0T8k-70" value="Duração" style="ellipse;whiteSpace=wrap;html=1;align=center;" vertex="1" parent="1">
          <mxGeometry x="740" y="210" width="100" height="40" as="geometry" />
        </mxCell>
        <mxCell id="mqKw5znJvU7-oB4T0T8k-71" value="Podio" style="ellipse;whiteSpace=wrap;html=1;align=center;" vertex="1" parent="1">
          <mxGeometry x="850" y="250" width="100" height="40" as="geometry" />
        </mxCell>
        <mxCell id="mqKw5znJvU7-oB4T0T8k-72" value="" style="endArrow=none;html=1;rounded=0;exitX=0;exitY=0;exitDx=0;exitDy=0;entryX=1;entryY=1;entryDx=0;entryDy=0;" edge="1" parent="1" target="mqKw5znJvU7-oB4T0T8k-69">
          <mxGeometry relative="1" as="geometry">
            <mxPoint x="740" y="320" as="sourcePoint" />
            <mxPoint x="970" y="440" as="targetPoint" />
          </mxGeometry>
        </mxCell>
        <mxCell id="mqKw5znJvU7-oB4T0T8k-73" value="" style="endArrow=none;html=1;rounded=0;exitX=0.5;exitY=0;exitDx=0;exitDy=0;entryX=0.5;entryY=1;entryDx=0;entryDy=0;" edge="1" parent="1" target="mqKw5znJvU7-oB4T0T8k-70">
          <mxGeometry relative="1" as="geometry">
            <mxPoint x="790" y="320" as="sourcePoint" />
            <mxPoint x="930" y="420" as="targetPoint" />
          </mxGeometry>
        </mxCell>
        <mxCell id="mqKw5znJvU7-oB4T0T8k-74" value="" style="endArrow=none;html=1;rounded=0;exitX=1;exitY=0;exitDx=0;exitDy=0;entryX=0;entryY=1;entryDx=0;entryDy=0;" edge="1" parent="1" target="mqKw5znJvU7-oB4T0T8k-71">
          <mxGeometry relative="1" as="geometry">
            <mxPoint x="840" y="320" as="sourcePoint" />
            <mxPoint x="970" y="430" as="targetPoint" />
          </mxGeometry>
        </mxCell>
        <mxCell id="mqKw5znJvU7-oB4T0T8k-85" value="Competição" style="shape=ext;margin=3;double=1;whiteSpace=wrap;html=1;align=center;" vertex="1" parent="1">
          <mxGeometry x="740" y="320" width="100" height="40" as="geometry" />
        </mxCell>
      </root>
    </mxGraphModel>
  </diagram>
</mxfile>
